<?xml version="1.0" encoding="utf-8"?>
<!-- Generator: Adobe Illustrator 26.3.1, SVG Export Plug-In . SVG Version: 6.00 Build 0)  -->
<svg version="1.1" id="Layer_1" xmlns="http://www.w3.org/2000/svg" xmlns:xlink="http://www.w3.org/1999/xlink" x="0px" y="0px"
	 viewBox="0 0 24 24" style="enable-background:new 0 0 24 24;" xml:space="preserve">
<style type="text/css">
	.st0{fill:#1E88E5;}
	.st1{fill:#BBDEFB;}
</style>
<path class="st0" d="M19,20H4c-1.1,0-2-0.9-2-2V6c0-1.1,0.9-2,2-2h6l2,2h7c1.1,0,2,0.9,2,2H4v10l2.1-8h17.1l-2.3,8.5
	C20.7,19.4,19.9,20,19,20z"/>
<path class="st1" d="M21,13.5c0-0.4-0.2-0.8-0.6-1L15,9.3l-5.4,3.2c-0.3,0.2-0.6,0.6-0.6,1v6c0,0.7,0.5,1.2,1.2,1.2h9.6
	c0.7,0,1.2-0.5,1.2-1.2L21,13.5z M15,16.5l-5-3.1l5-2.9l5,2.9L15,16.5z"/>
</svg>
